<?xml version="1.0" standalone="no"?>
<!DOCTYPE svg PUBLIC "-//W3C//DTD SVG 20010904//EN"
 "http://www.w3.org/TR/2001/REC-SVG-20010904/DTD/svg10.dtd">
<svg version="1.0" xmlns="http://www.w3.org/2000/svg"
 width="350.000000pt" height="350.000000pt" viewBox="0 0 350.000000 350.000000"
 preserveAspectRatio="xMidYMid meet">
<metadata>
Created by potrace 1.14, written by Peter Selinger 2001-2017
</metadata>
<g transform="translate(0.000000,350.000000) scale(0.100000,-0.100000)"
fill="#000000" stroke="none">
<path d="M1307 2804 c-1 -1 -58 -4 -127 -8 -69 -3 -138 -8 -155 -11 -16 -2
-68 -9 -115 -15 -283 -38 -514 -131 -608 -245 -60 -73 -118 -221 -145 -366
-16 -82 -25 -149 -22 -149 1 0 40 14 86 31 80 29 203 61 279 74 19 3 42 8 50
10 8 2 35 6 60 9 171 19 170 19 170 42 0 32 56 127 99 171 112 112 174 131
442 133 176 1 208 -1 219 -15 7 -9 14 -46 15 -88 1 -39 3 -75 4 -79 0 -5 69
-8 152 -8 84 0 159 -5 170 -10 23 -13 27 -91 5 -109 -9 -8 -66 -12 -170 -12
-86 0 -157 -3 -157 -7 -5 -23 -5 -192 0 -193 3 -1 74 -2 157 -3 171 -2 184 -7
184 -65 0 -65 -3 -66 -172 -68 -84 -1 -158 -2 -164 -2 -7 -1 -10 -28 -10 -77
3 -121 14 -116 -242 -111 -249 4 -282 11 -378 83 -88 66 -164 194 -164 276 0
16 -6 18 -32 14 -18 -3 -67 -10 -108 -16 -69 -9 -86 -12 -145 -24 -77 -16
-194 -50 -256 -76 -73 -30 -101 -51 -94 -73 2 -7 6 -39 9 -72 6 -55 56 -235
73 -262 6 -8 22 2 53 29 47 43 135 88 210 108 57 15 184 15 241 0 183 -49 331
-201 373 -381 17 -72 15 -224 -4 -259 -6 -12 -9 -24 -6 -27 7 -7 1316 -7 1323
0 3 4 0 28 -6 54 -15 58 -12 162 6 228 46 165 165 293 328 355 72 27 209 34
289 16 128 -30 271 -136 328 -242 13 -24 26 -44 30 -44 12 0 21 110 15 184 -9
111 -56 220 -131 305 -70 79 -231 161 -318 161 -25 0 -26 2 -21 39 4 30 0 48
-16 74 -22 36 -95 88 -141 102 -14 5 -54 36 -90 69 -161 153 -357 277 -605
385 -180 79 -386 140 -530 157 -52 6 -232 12 -238 8z m833 -594 c60 -60 -18
-153 -88 -104 -47 33 -16 124 43 124 14 0 34 -9 45 -20z m241 -27 c1 -5 2
-124 3 -266 l1 -257 -62 0 c-35 0 -63 3 -64 8 -3 22 -5 508 -1 515 2 4 30 7
63 7 32 0 59 -3 60 -7z m233 -243 c1 -135 0 -253 -3 -263 -3 -15 -13 -17 -64
-15 l-60 3 -1 250 c-1 138 0 256 3 263 2 9 21 12 64 10 l60 -3 1 -245z m-456
-85 l0 -195 -64 0 -64 0 0 195 0 195 64 0 64 0 0 -195z"/>
<path d="M1108 2326 c-127 -34 -198 -132 -198 -272 0 -139 78 -239 212 -272
65 -17 285 -16 290 1 3 10 2 502 -1 545 -1 16 -239 15 -303 -2z"/>
<path d="M485 1494 c-183 -49 -307 -208 -307 -394 0 -218 168 -396 384 -406
276 -12 485 247 414 514 -56 209 -283 342 -491 286z m186 -227 c137 -73 134
-269 -5 -336 -99 -48 -217 -3 -260 99 -17 41 -13 117 8 157 48 92 165 128 257
80z"/>
<path d="M2830 1499 c-179 -36 -315 -195 -325 -379 -14 -280 257 -491 525
-408 95 29 196 112 238 195 113 220 13 487 -212 572 -64 24 -165 33 -226 20z
m156 -225 c77 -37 118 -107 112 -191 -13 -166 -212 -232 -326 -109 -77 84 -65
214 26 277 61 42 130 50 188 23z"/>
</g>
</svg>
